<?xml version="1.0" standalone="no"?>
<!DOCTYPE svg PUBLIC "-//W3C//DTD SVG 20010904//EN"
 "http://www.w3.org/TR/2001/REC-SVG-20010904/DTD/svg10.dtd">
<svg version="1.0" xmlns="http://www.w3.org/2000/svg"
 width="260.000000pt" height="260.000000pt" viewBox="0 0 260.000000 260.000000"
 preserveAspectRatio="xMidYMid meet">
<metadata>
Created by potrace 1.14, written by Peter Selinger 2001-2017
</metadata>
<g transform="translate(0.000000,260.000000) scale(0.100000,-0.100000)"
fill="#000000" stroke="none">
<path d="M383 2593 c214 -2 560 -2 770 0 210 1 36 2 -388 2 -424 0 -595 -1
-382 -2z"/>
<path d="M1553 2593 c9 -2 23 -2 30 0 6 3 -1 5 -18 5 -16 0 -22 -2 -12 -5z"/>
<path d="M1613 2593 c9 -2 23 -2 30 0 6 3 -1 5 -18 5 -16 0 -22 -2 -12 -5z"/>
<path d="M1673 2593 c9 -2 23 -2 30 0 6 3 -1 5 -18 5 -16 0 -22 -2 -12 -5z"/>
<path d="M1763 2593 c9 -2 23 -2 30 0 6 3 -1 5 -18 5 -16 0 -22 -2 -12 -5z"/>
<path d="M2548 2593 c7 -3 16 -2 19 1 4 3 -2 6 -13 5 -11 0 -14 -3 -6 -6z"/>
<path d="M765 2219 c-2 -3 -29 -5 -59 -4 -30 1 -55 -1 -54 -4 2 -21 -7 -26
-49 -28 -84 -2 -85 -2 -80 -18 4 -8 1 -17 -6 -21 -7 -4 -9 -4 -5 1 4 4 3 16
-3 26 -8 15 -14 17 -28 9 -10 -5 -22 -6 -26 -2 -5 4 -5 2 -1 -5 3 -6 15 -10
26 -8 11 2 20 -1 20 -7 0 -5 -7 -8 -15 -4 -8 3 -15 0 -15 -6 0 -6 -6 -5 -17 3
-13 11 -15 11 -9 1 6 -10 3 -13 -10 -12 -45 5 -89 0 -75 -9 18 -11 6 -30 -17
-26 -9 1 -22 -2 -29 -7 -7 -5 -18 -6 -24 -2 -7 4 -9 3 -5 -4 3 -6 -1 -18 -10
-27 -12 -12 -19 -13 -24 -5 -5 8 -10 9 -14 2 -3 -6 -2 -13 4 -17 15 -9 2 -25
-22 -25 -15 0 -19 -5 -15 -20 3 -11 1 -18 -4 -14 -5 3 -9 0 -9 -5 0 -6 -6 -10
-12 -9 -8 2 -14 -11 -16 -35 -3 -32 -6 -37 -23 -32 -19 6 -20 5 -23 -62 -1
-12 -5 -25 -10 -30 -5 -4 -6 -3 -3 3 4 7 1 14 -7 17 -10 4 -13 -2 -12 -24 1
-16 -1 -29 -4 -29 -4 0 -6 -20 -5 -45 2 -38 0 -43 -15 -35 -15 8 -16 -3 -16
-115 1 -92 5 -127 15 -137 9 -8 11 -8 7 -1 -3 6 -3 14 2 17 11 7 9 -45 -2 -63
-7 -10 -6 -12 4 -6 10 6 12 3 8 -13 -6 -23 18 -66 33 -57 15 10 10 -2 -8 -16
-10 -8 -14 -9 -10 -2 4 6 3 14 -2 17 -5 4 -8 -2 -6 -11 1 -10 10 -17 19 -17
16 2 19 -6 17 -41 -1 -12 3 -32 9 -45 10 -23 10 -23 6 -2 -6 29 6 28 21 -3 8
-19 8 -23 0 -18 -7 4 -6 -1 2 -10 7 -9 11 -27 8 -39 -6 -22 -6 -22 13 2 17 23
19 23 14 4 -3 -12 -1 -25 5 -28 5 -4 7 -14 4 -23 -4 -11 -3 -14 6 -9 6 4 19 2
27 -5 12 -10 12 -14 2 -20 -11 -7 -11 -9 0 -9 7 0 11 -4 8 -9 -3 -4 2 -17 10
-27 15 -18 15 -18 11 2 -3 13 1 21 9 21 7 0 11 -4 8 -9 -3 -5 -2 -22 1 -39 6
-25 9 -28 21 -18 9 7 14 8 13 3 -1 -5 0 -11 1 -14 3 -9 11 -45 12 -57 1 -7 4
-11 7 -10 3 1 15 -4 26 -10 11 -6 25 -11 30 -12 6 -1 10 -4 10 -8 0 -5 3 -12
6 -18 4 -5 5 -18 4 -27 -2 -10 0 -17 3 -17 20 3 32 -3 32 -15 0 -8 7 -17 16
-20 14 -5 15 -4 5 8 -8 10 -9 16 -1 21 5 3 10 5 11 3 4 -18 10 -46 11 -60 1
-9 5 -16 8 -16 25 2 40 -4 34 -14 -5 -8 -2 -9 9 -5 9 3 19 1 23 -5 4 -7 3 -8
-4 -4 -7 4 -12 3 -12 -2 0 -6 7 -12 15 -16 8 -3 12 -12 9 -21 -7 -17 11 -21
22 -3 4 7 3 8 -4 4 -8 -5 -10 -2 -6 9 8 19 14 14 18 -12 2 -12 11 -17 26 -15
l22 2 -22 -18 c-20 -16 -20 -18 -3 -20 35 -4 48 -7 51 -15 5 -16 1 -19 -11 -8
-10 8 -14 7 -14 -3 0 -8 8 -13 19 -11 10 2 18 -1 18 -6 0 -6 10 -8 23 -5 12 3
17 3 10 0 -16 -7 15 -44 33 -37 7 3 14 -5 16 -19 2 -16 9 -22 21 -20 12 2 21
-4 24 -17 3 -12 9 -22 14 -22 5 -1 14 -3 19 -4 6 -1 16 -3 24 -4 7 0 16 -9 19
-20 3 -13 12 -18 31 -16 21 3 25 0 17 -9 -11 -13 -5 -26 11 -26 5 0 7 4 3 9
-3 5 0 13 6 17 7 4 9 3 6 -3 -10 -16 15 -32 50 -35 18 -1 31 -5 31 -8 -2 -24
5 -29 38 -26 29 2 38 -2 46 -20 7 -15 19 -22 37 -22 57 1 63 -1 56 -22 -5 -15
-3 -18 9 -14 9 3 14 10 11 14 -3 5 0 12 6 16 7 4 9 3 6 -3 -9 -15 13 -30 41
-27 19 1 20 -1 10 -14 -11 -13 -11 -14 0 -8 7 4 21 2 30 -5 14 -11 15 -11 5 1
-17 18 -17 33 -1 24 15 -10 50 -10 64 -1 6 3 11 0 11 -7 0 -8 -10 -12 -27 -11
-17 1 -27 -3 -27 -11 0 -11 3 -11 15 -1 18 14 22 13 33 -5 5 -7 9 -8 9 -2 0
12 29 12 48 0 6 -4 12 -3 12 3 0 5 -5 13 -10 16 -13 8 -3 25 13 25 8 0 8 -3
-1 -9 -10 -6 -10 -10 3 -21 8 -7 15 -9 15 -4 0 5 5 2 10 -6 6 -9 10 -11 10 -3
0 7 7 10 18 7 11 -4 13 -3 5 3 -16 12 -3 29 22 28 15 0 20 6 19 23 -1 14 3 21
11 19 6 -3 18 -1 26 4 9 6 10 9 2 9 -9 0 -10 7 -3 25 5 14 6 25 2 25 -4 0 2 7
12 15 14 11 16 15 5 15 -9 0 -14 11 -15 30 -1 37 1 37 20 3 l14 -28 -1 27 c-1
14 -5 24 -8 22 -12 -7 -31 26 -25 42 5 13 2 15 -13 11 -15 -4 -21 1 -26 23 -4
20 -11 28 -24 25 -10 -2 -18 3 -18 11 0 9 7 13 21 9 19 -5 19 -4 -1 6 -12 7
-27 23 -32 38 -5 14 -10 19 -10 11 -2 -32 -21 15 -21 53 0 30 4 37 20 37 11 0
20 4 20 10 0 5 -6 7 -14 4 -8 -3 -16 -1 -20 4 -3 5 0 9 7 10 65 7 99 7 103 0
3 -5 12 -4 20 3 8 6 14 10 15 8 7 -37 7 -40 -6 -29 -8 7 -15 7 -19 1 -8 -13 4
-19 34 -16 14 1 33 -2 44 -7 13 -7 21 -6 27 3 6 10 9 11 9 2 0 -24 -3 -28 -24
-26 -17 2 -17 1 4 -8 14 -6 35 -8 48 -6 19 4 22 0 20 -17 -2 -15 2 -21 17 -21
11 0 21 -7 23 -16 2 -9 21 -22 43 -28 29 -9 39 -17 35 -27 -4 -10 2 -14 20
-14 19 0 25 -4 20 -15 -7 -18 17 -28 77 -34 14 -2 7 -18 -8 -18 -8 0 -11 5 -8
10 4 6 1 7 -6 3 -23 -14 -5 -22 52 -25 19 -1 27 -4 20 -9 -7 -4 -9 -12 -5 -17
6 -9 14 -11 65 -17 15 -2 21 -10 19 -29 0 -3 37 -5 82 -5 57 -1 83 3 83 11 0
6 -6 12 -13 12 -7 0 -11 -3 -9 -7 2 -4 -2 -7 -9 -7 -7 0 -13 6 -13 12 0 6 12
11 26 10 44 -2 100 16 95 30 -4 8 3 15 18 17 15 2 23 10 23 23 0 15 6 19 21
17 18 -2 21 1 17 21 -3 14 1 28 8 32 7 5 10 4 6 -2 -3 -5 0 -10 7 -10 8 0 12
7 8 15 -4 11 -1 13 9 7 8 -4 11 -5 7 0 -4 4 -2 15 5 23 10 13 9 14 -1 8 -12
-7 -12 -4 -2 14 10 18 14 20 21 9 7 -12 9 -11 10 1 4 62 6 77 13 88 4 7 11 10
16 7 5 -3 12 0 16 6 5 8 3 9 -6 4 -9 -5 -10 -2 -5 14 4 13 2 21 -5 21 -6 0 -9
-4 -6 -8 2 -4 1 -14 -3 -21 -6 -9 -11 -10 -15 -2 -4 6 -3 11 3 11 5 0 8 12 6
27 -2 16 -2 22 1 16 3 -7 13 -13 22 -13 15 0 15 2 2 10 -8 5 -10 10 -4 10 6 0
10 19 10 45 -1 25 -2 45 -3 45 -1 0 -10 -8 -19 -17 -17 -17 -18 -17 -11 0 4
10 2 17 -5 17 -7 0 -7 4 1 14 9 10 9 16 1 21 -8 5 -5 12 7 21 13 10 14 13 2 9
-12 -5 -15 3 -14 40 1 29 -3 45 -11 45 -6 0 -15 7 -18 16 -5 14 -4 15 8 5 11
-9 15 -8 19 4 4 8 3 14 -1 14 -31 -5 -39 3 -37 37 1 24 -4 38 -15 44 -10 5
-20 7 -22 4 -3 -3 -5 3 -5 13 0 63 -3 72 -23 68 -11 -2 -19 -1 -19 3 1 4 1 23
0 44 -1 31 -4 35 -21 31 -17 -5 -20 0 -20 28 0 20 -4 29 -8 22 -5 -8 -13 -9
-22 -3 -10 7 -11 10 -2 10 6 0 12 5 12 12 0 6 -3 9 -6 5 -4 -3 -13 0 -20 8
-16 16 -19 29 -4 20 6 -3 10 -1 10 4 0 6 -9 11 -19 11 -13 0 -21 8 -23 23 -2
13 -10 22 -20 21 -10 -1 -18 9 -22 27 -4 20 -10 27 -21 23 -14 -6 -21 12 -16
39 1 5 -4 5 -10 1 -9 -5 -10 -2 -6 10 4 9 3 14 -2 11 -5 -3 -12 -1 -16 5 -3 5
-15 10 -26 10 -13 0 -19 7 -19 24 0 13 -8 30 -17 37 -16 12 -17 12 -6 -2 10
-13 10 -16 -2 -16 -8 0 -16 9 -16 19 -3 35 -4 39 -19 48 -8 5 -25 10 -37 10
-17 0 -23 6 -23 23 0 18 -5 23 -22 23 -17 -1 -22 4 -20 17 2 12 -4 17 -21 17
-17 0 -24 5 -23 18 0 10 -5 16 -15 14 -9 -1 -20 8 -26 21 -7 14 -20 23 -38 25
-35 3 -48 11 -41 28 4 10 -3 14 -23 14 -21 0 -28 5 -27 17 0 10 -5 18 -11 19
-7 1 -14 3 -15 4 -2 1 -17 3 -35 4 -34 2 -48 10 -48 29 0 7 -7 12 -15 13 -34
2 -40 5 -37 15 2 11 -20 19 -60 22 -12 0 -20 4 -17 8 12 20 -9 34 -49 33 -23
-1 -49 3 -58 7 -9 5 -22 3 -30 -4 -7 -7 -6 -3 4 9 22 27 22 37 -2 24 -14 -7
-22 -7 -26 0 -4 6 -15 8 -26 5 -13 -5 -19 -2 -19 10 0 10 5 13 12 9 7 -5 8 -3
4 5 -5 7 -11 10 -14 7 -3 -3 -12 0 -20 7 -10 7 -13 8 -9 1 4 -8 -2 -11 -18
-10 -14 0 -25 4 -25 7 0 3 -12 6 -27 5 -17 0 -27 4 -25 12 1 7 -2 12 -8 12 -5
0 -10 -7 -10 -15 0 -9 -6 -12 -17 -8 -11 4 -13 8 -5 11 7 2 10 8 7 12 -3 5
-13 6 -22 3 -9 -4 -14 -2 -11 3 4 5 -25 9 -65 9 -54 1 -71 4 -69 14 1 7 -2 10
-7 7 -5 -4 -12 0 -15 6 -3 7 -4 4 -1 -7 4 -15 0 -21 -15 -22 -11 -1 -20 3 -20
8 0 6 4 8 8 5 5 -3 9 1 9 8 0 7 -6 13 -13 13 -7 0 -12 -5 -11 -11 1 -6 -10
-11 -24 -12 -14 -1 -30 -4 -35 -7 -6 -3 -10 3 -10 13 0 10 5 16 10 12 19 -12
46 -9 46 5 0 11 -5 11 -20 3 -14 -7 -20 -7 -20 0 0 15 -52 1 -69 -19 -12 -14
-12 -14 -7 4 5 16 1 20 -20 20 -14 0 -27 -3 -29 -6z m-65 -21 c0 -10 3 -9 9 1
5 7 14 10 20 7 6 -4 9 -11 6 -16 -6 -9 -24 -8 -42 3 -8 5 -13 3 -13 -3 0 -6
-5 -8 -11 -4 -8 4 -7 9 2 15 20 12 29 11 29 -3z m90 4 c0 -4 -10 -9 -22 -9
-18 -2 -20 0 -8 7 18 12 30 13 30 2z m65 -2 c-3 -5 -11 -10 -16 -10 -6 0 -7 5
-4 10 3 6 11 10 16 10 6 0 7 -4 4 -10z m290 -48 c-3 -3 -11 0 -18 7 -9 10 -8
11 6 5 10 -3 15 -9 12 -12z m175 -32 c0 -5 -8 -10 -17 -10 -15 0 -16 2 -3 10
19 12 20 12 20 0z m205 -80 c-3 -5 -11 -10 -16 -10 -6 0 -7 5 -4 10 3 6 11 10
16 10 6 0 7 -4 4 -10z m78 -47 c-3 -7 -6 -13 -8 -13 -2 0 -5 6 -8 13 -3 8 1
14 8 14 7 0 11 -6 8 -14z m161 -75 c-3 -4 -9 -8 -15 -8 -5 0 -9 4 -9 8 0 5 7
9 15 9 8 0 12 -4 9 -9z m129 -81 c3 -8 -1 -14 -9 -14 -15 0 -18 9 -7 20 9 9
10 9 16 -6z m201 -168 c-8 -14 -24 -10 -24 6 0 9 6 12 15 9 8 -4 12 -10 9 -15z
m-2019 1 c-3 -5 -12 -10 -18 -10 -7 0 -6 4 3 10 19 12 23 12 15 0z m-7 -75
c-3 -3 -9 2 -12 12 -6 14 -5 15 5 6 7 -7 10 -15 7 -18z m0 -105 c-7 -10 -14
-17 -17 -15 -4 4 18 35 25 35 2 0 -1 -9 -8 -20z m1712 -289 c0 -4 -6 -13 -12
-20 -7 -7 -8 -12 -3 -11 31 6 63 -3 89 -25 16 -13 33 -22 39 -18 6 3 7 1 3 -6
-4 -6 -12 -9 -17 -6 -5 4 -9 -1 -9 -10 0 -10 7 -15 18 -13 12 2 18 -5 20 -24
2 -18 8 -25 17 -22 7 3 16 1 20 -5 5 -10 -6 -15 -26 -13 -3 1 -6 -5 -6 -13 0
-8 4 -12 8 -9 4 2 9 1 12 -3 2 -5 2 -1 0 7 -3 12 -2 13 8 2 17 -16 -7 -42 -42
-45 -13 0 -30 -9 -37 -19 -7 -10 -19 -18 -25 -18 -7 0 -4 5 6 11 27 16 20 25
-19 25 -31 0 -33 -2 -18 -13 10 -7 15 -15 13 -18 -3 -3 -14 3 -25 13 -26 25
-52 33 -58 19 -2 -7 -5 -3 -5 8 -1 16 -3 17 -11 5 -8 -13 -11 -13 -22 -1 -10
10 -10 12 0 7 7 -5 12 -1 12 10 0 11 -6 15 -19 11 -10 -2 -25 -1 -32 4 -10 6
-10 9 -2 9 7 0 10 7 7 15 -4 8 -10 15 -16 15 -5 0 -6 -6 -2 -12 5 -9 2 -9 -9
1 -9 7 -17 21 -17 31 0 10 -9 20 -20 23 -15 4 -20 14 -20 40 0 20 5 39 10 42
6 4 7 11 4 17 -4 7 -2 8 5 4 6 -4 9 -12 6 -17 -4 -5 0 -9 8 -9 10 0 13 7 10
20 -5 19 -1 20 76 19 44 -1 81 -4 81 -8z m-1417 -292 c4 -16 3 -18 -9 -8 -7 6
-11 15 -8 20 8 13 11 11 17 -12z m72 -79 c-3 -5 -1 -10 6 -10 7 0 10 -3 6 -6
-9 -9 -28 6 -22 17 4 5 8 9 11 9 3 0 2 -4 -1 -10z m2148 -15 c-3 -9 -8 -14
-10 -11 -3 3 -2 9 2 15 9 16 15 13 8 -4z m-2062 -72 c13 -16 12 -17 -3 -4 -10
7 -18 15 -18 17 0 8 8 3 21 -13z m324 -283 c3 -5 1 -10 -4 -10 -6 0 -11 5 -11
10 0 6 2 10 4 10 3 0 8 -4 11 -10z m1358 -70 c3 6 4 5 3 -2 -4 -17 -38 -17
-44 0 -3 11 0 12 16 3 14 -7 22 -7 25 -1z m-753 -171 c0 -6 -4 -7 -10 -4 -5 3
-10 11 -10 16 0 6 5 7 10 4 6 -3 10 -11 10 -16z m78 9 c-2 -6 -13 -12 -24 -14
-19 -3 -19 -3 0 12 24 17 29 18 24 2z"/>
<path d="M1745 1189 c-11 -16 -1 -19 13 -3 7 8 8 14 3 14 -5 0 -13 -5 -16 -11z"/>
<path d="M1826 1145 c4 -8 11 -15 16 -15 6 0 5 6 -2 15 -7 8 -14 15 -16 15 -2
0 -1 -7 2 -15z"/>
<path d="M1593 1115 c0 -8 4 -12 9 -9 5 3 6 10 3 15 -9 13 -12 11 -12 -6z"/>
<path d="M1435 2080 c3 -5 8 -10 11 -10 2 0 4 5 4 10 0 6 -5 10 -11 10 -5 0
-7 -4 -4 -10z"/>
<path d="M1675 1971 c-3 -5 -1 -12 4 -15 5 -3 11 1 15 9 6 16 -9 21 -19 6z"/>
<path d="M124 1929 c-4 -7 -3 -9 4 -5 5 3 13 0 15 -6 4 -9 6 -10 6 -1 1 17
-16 25 -25 12z"/>
<path d="M50 1731 c0 -6 4 -13 10 -16 6 -3 7 1 4 9 -7 18 -14 21 -14 7z"/>
<path d="M2040 1731 c0 -6 4 -13 10 -16 6 -3 7 1 4 9 -7 18 -14 21 -14 7z"/>
<path d="M2170 1605 c-7 -9 -8 -15 -2 -15 5 0 12 7 16 15 3 8 4 15 2 15 -2 0
-9 -7 -16 -15z"/>
<path d="M47 1425 c3 -8 9 -12 14 -9 12 7 11 11 -5 17 -10 4 -13 1 -9 -8z"/>
<path d="M2490 1161 c0 -6 4 -13 10 -16 6 -3 7 1 4 9 -7 18 -14 21 -14 7z"/>
<path d="M215 1069 c-4 -6 -5 -12 -2 -15 2 -3 7 2 10 11 7 17 1 20 -8 4z"/>
<path d="M2575 879 c-11 -17 1 -21 15 -4 8 9 8 15 2 15 -6 0 -14 -5 -17 -11z"/>
<path d="M370 858 c0 -4 4 -8 9 -8 6 0 12 4 15 8 3 5 -1 9 -9 9 -8 0 -15 -4
-15 -9z"/>
<path d="M1876 537 c3 -10 9 -15 12 -12 3 3 0 11 -7 18 -10 9 -11 8 -5 -6z"/>
<path d="M2335 381 c-3 -5 -2 -12 3 -15 5 -3 9 1 9 9 0 17 -3 19 -12 6z"/>
<path d="M1016 331 c-4 -5 -2 -12 3 -15 5 -4 12 -2 15 3 4 5 2 12 -3 15 -5 4
-12 2 -15 -3z"/>
<path d="M1110 302 c0 -8 -5 -10 -12 -6 -10 5 -10 4 -1 -6 16 -17 35 -9 23 10
-7 11 -10 11 -10 2z"/>
</g>
</svg>
